<?xml version="1.0" standalone="no"?>
<svg version="1.0" xmlns="http://www.w3.org/2000/svg"
 width="1200.000000pt" height="600.000000pt" viewBox="0 0 1200.000000 600.000000"
 preserveAspectRatio="xMidYMid meet">

<g transform="translate(0.000000,600.000000) scale(0.100000,-0.100000)"
fill="#000000" stroke="none">
<path d="M5636 4969 c-1475 -50 -2807 -386 -3601 -909 -309 -204 -524 -431
-640 -674 -176 -366 -105 -722 219 -1101 28 -33 55 -62 59 -64 5 -2 13 -14 18
-28 5 -14 12 -23 16 -20 3 4 17 -8 30 -26 28 -37 128 -126 228 -201 179 -135
366 -245 599 -353 88 -41 185 -85 214 -99 29 -13 56 -24 61 -24 5 0 33 -11 62
-24 75 -32 394 -137 569 -186 554 -155 1201 -261 1890 -310 245 -18 960 -24
1230 -11 989 48 1889 215 2615 486 176 66 212 80 330 135 39 18 93 42 120 55
90 39 278 146 392 221 455 300 707 643 729 992 3 53 2 120 -4 147 -51 254 -71
318 -137 442 -175 330 -510 613 -1020 863 -719 351 -1690 586 -2755 665 -413
31 -807 39 -1224 24z m1099 -54 c1367 -90 2557 -417 3277 -902 475 -319 726
-702 693 -1058 -30 -333 -238 -626 -643 -912 -65 -45 -128 -88 -142 -95 -14
-7 -36 -20 -50 -29 -59 -39 -220 -119 -240 -119 -11 0 -18 -4 -15 -10 4 -6 -8
-10 -30 -10 -22 0 -55 -11 -83 -27 -25 -15 -42 -22 -38 -15 4 7 2 12 -4 12 -6
0 -13 -7 -17 -16 -4 -11 -14 -13 -37 -9 -20 4 -26 3 -18 -3 11 -7 10 -11 -5
-17 -10 -5 -22 -7 -26 -6 -17 3 -117 -31 -117 -41 0 -6 -10 -8 -21 -5 -20 5
-97 -18 -109 -33 -3 -3 -57 -18 -120 -34 -63 -15 -124 -31 -135 -36 -19 -8
-198 -53 -220 -55 -5 -1 -17 -4 -25 -7 -8 -4 -28 -9 -45 -11 -16 -3 -95 -19
-175 -37 -80 -17 -163 -34 -185 -36 -22 -3 -51 -10 -65 -14 -14 -5 -41 -10
-60 -12 -19 -1 -39 -5 -45 -9 -5 -4 -39 -10 -75 -14 -36 -3 -106 -13 -156 -21
-95 -16 -107 -17 -264 -33 -52 -6 -117 -15 -145 -20 -27 -6 -104 -15 -169 -21
-65 -6 -122 -12 -126 -15 -3 -2 -69 -7 -146 -10 -76 -3 -161 -8 -189 -10 -209
-18 -442 -25 -755 -25 -396 0 -493 5 -526 27 -14 9 -24 10 -28 4 -4 -5 2 -12
11 -14 10 -3 -1 -5 -24 -6 -23 0 -53 3 -68 9 -17 7 -24 7 -20 0 4 -6 -5 -10
-19 -10 -14 0 -26 4 -26 9 0 6 -24 8 -56 4 -36 -3 -54 -2 -50 5 4 6 -13 9 -45
6 -45 -3 -189 7 -289 20 -19 3 -64 8 -100 11 -36 3 -117 12 -180 20 -63 9
-123 13 -133 11 -9 -2 -15 -1 -12 4 5 8 -102 23 -115 15 -4 -3 -10 -1 -12 4
-1 5 -33 12 -70 15 -84 9 -115 14 -155 27 -17 5 -62 14 -100 19 -125 17 -228
35 -238 41 -10 6 -68 20 -110 25 -19 3 -144 31 -300 68 -38 9 -91 24 -118 32
-26 8 -52 12 -59 8 -6 -4 -9 -3 -5 2 3 5 -6 15 -20 21 -21 10 -24 10 -19 -3 5
-12 -1 -11 -22 4 -15 10 -44 20 -64 20 -21 1 -51 8 -66 16 -16 8 -51 20 -78
27 -27 7 -80 25 -118 41 -37 15 -73 25 -79 21 -6 -3 -7 -1 -3 6 5 8 0 11 -16
10 -12 -1 -32 -1 -43 0 -17 1 -18 3 -5 12 11 8 7 9 -17 5 -18 -3 -33 -2 -33 3
0 5 -20 15 -45 22 -25 7 -45 17 -45 21 0 4 -19 13 -42 19 -54 16 -56 16 -69
18 -5 0 -7 7 -3 13 5 8 1 8 -10 -1 -10 -9 -20 -11 -24 -5 -4 5 -14 10 -22 12
-8 2 -16 8 -18 13 -2 5 -10 9 -18 9 -9 0 -12 5 -8 12 4 7 3 8 -4 4 -14 -8
-115 48 -105 58 4 4 1 4 -8 1 -19 -7 -268 164 -384 265 -315 273 -471 597
-435 898 63 516 627 1002 1565 1347 774 284 1719 451 2770 489 188 7 849 -5
1060 -19z m-4315 -3120 c11 -13 10 -14 -4 -9 -9 3 -16 10 -16 15 0 13 6 11 20
-6z m50 -15 c0 -5 -4 -10 -10 -10 -5 0 -10 5 -10 10 0 6 5 10 10 10 6 0 10 -4
10 -10z m65 -40 c3 -6 -1 -7 -9 -4 -18 7 -21 14 -7 14 6 0 13 -4 16 -10z"/>
<path d="M5535 4754 c-1138 -64 -2066 -272 -2780 -624 -333 -164 -594 -353
-726 -527 -24 -32 -48 -61 -54 -65 -5 -4 -6 -8 -1 -8 5 0 2 -8 -6 -17 -8 -10
-29 -43 -46 -74 -25 -44 -29 -59 -20 -66 7 -6 55 -15 106 -20 82 -9 95 -14
119 -39 15 -16 31 -28 35 -27 4 2 8 -5 8 -14 0 -15 2 -14 15 3 10 13 8 -1 -7
-46 -14 -46 -22 -102 -25 -195 -5 -122 0 -165 30 -275 2 -8 2 -12 0 -7 -3 4
-9 5 -14 1 -5 -3 -9 3 -9 13 0 15 -4 14 -20 -7 -16 -20 -20 -22 -20 -7 0 19
-20 23 -36 7 -5 -5 -45 -12 -88 -14 -43 -3 -81 -7 -84 -10 -3 -3 -16 -3 -28 0
-15 4 -24 2 -24 -5 0 -11 13 -15 39 -12 11 2 11 0 0 -12 -10 -11 -16 -12 -21
-3 -6 8 -11 7 -19 -4 -9 -13 -10 -12 -5 3 3 9 1 17 -4 17 -5 0 -11 8 -13 18
-4 16 -5 16 -6 0 0 -10 11 -43 25 -75 195 -426 825 -828 1706 -1088 943 -279
2146 -384 3303 -289 871 71 1705 268 2305 543 583 268 943 588 1059 944 13 37
20 73 17 80 -3 7 -7 3 -11 -10 -8 -27 -23 -30 -32 -7 -4 12 -8 13 -14 3 -6
-10 -11 -10 -22 -1 -11 9 -26 10 -57 3 -26 -6 -52 -6 -67 0 -13 5 -42 9 -64 9
-28 0 -39 4 -39 15 0 8 -4 15 -9 15 -5 0 -12 10 -14 23 -3 16 -5 13 -6 -10 0
-18 -5 -33 -10 -33 -5 0 -12 -8 -15 -17 -2 -10 -3 -2 0 17 14 118 11 198 -11
331 -5 30 -4 38 7 34 7 -2 63 2 123 10 l110 14 -119 -5 c-108 -5 -118 -4 -112
11 3 9 6 20 6 25 0 5 8 9 18 9 9 0 64 7 122 15 58 8 113 16 123 16 25 0 21 22
-19 103 -128 255 -411 491 -849 707 -573 283 -1257 466 -2129 570 -343 41
-545 52 -1051 55 -280 1 -537 1 -570 -1z m1070 -45 c174 -10 524 -42 647 -59
65 -10 158 -48 203 -85 11 -9 -7 -2 -40 14 -57 29 -85 38 -85 25 0 -3 26 -36
58 -73 192 -229 229 -447 115 -677 -170 -346 -982 -1011 -1498 -1229 -183 -77
-408 -136 -630 -165 -333 -44 -519 -54 -1015 -54 l-474 -1 -15 26 c-13 24 -12
31 25 103 22 44 48 82 59 86 11 4 71 16 134 25 109 16 379 78 486 111 64 20
148 59 190 87 143 97 454 484 566 704 126 248 104 490 -64 716 -58 77 -156
177 -173 177 -8 0 -11 6 -8 15 7 17 -11 21 -21 5 -3 -5 -11 -10 -17 -10 -6 0
-3 9 6 19 13 14 14 21 5 27 -8 4 -10 3 -5 -4 14 -23 -39 -43 -100 -38 -34 2
-65 -1 -72 -7 -9 -7 -16 -7 -20 -1 -4 6 -17 11 -29 11 -36 3 -34 -31 4 -73 43
-50 66 -92 59 -111 -3 -8 -10 -12 -15 -9 -14 9 -25 -11 -96 -184 -37 -91 -177
-429 -312 -752 -134 -323 -243 -595 -241 -604 3 -15 -19 -22 -137 -45 -77 -15
-143 -24 -147 -20 -7 6 139 331 568 1267 129 281 234 514 234 518 0 3 -7 6
-15 6 -9 0 -19 8 -22 18 -6 14 -8 13 -14 -8 -7 -24 -7 -24 -8 -2 -1 26 -21 30
-22 5 0 -15 -2 -15 -9 2 -5 11 -9 14 -9 7 -1 -14 -21 -7 -21 7 0 7 124 91 135
91 2 0 42 22 88 50 l84 49 234 21 c431 39 973 46 1434 19z m971 -217 c-5 -4
-66 26 -66 33 0 3 16 -3 35 -12 19 -9 33 -18 31 -21z m-2956 -22 c0 -5 -4 -10
-10 -10 -5 0 -10 5 -10 10 0 6 5 10 10 10 6 0 10 -4 10 -10z m455 -40 c3 -5 1
-10 -4 -10 -6 0 -11 5 -11 10 0 6 2 10 4 10 3 0 8 -4 11 -10z m-427 -92 c6 -1
12 -5 12 -8 0 -19 -38 -109 -162 -380 -514 -1125 -700 -1543 -694 -1565 6 -24
49 -45 93 -45 20 0 23 -4 18 -20 -9 -28 9 -55 47 -71 52 -22 923 -19 1208 5
368 30 637 74 820 136 235 79 436 181 683 347 63 43 102 64 93 51 -23 -32 -20
-46 17 -108 136 -225 136 -234 29 -339 -281 -276 -539 -331 -1557 -331 -547 0
-956 19 -1402 66 -168 17 -198 10 -226 -49 -10 -20 -35 -74 -56 -121 -30 -65
-45 -87 -63 -91 -41 -11 -370 126 -573 238 -327 180 -553 378 -668 587 -54 98
-68 160 -62 269 7 145 44 252 131 388 250 388 851 724 1684 940 358 93 505
116 628 101z m3404 -77 c268 -63 600 -171 823 -266 106 -46 352 -168 407 -203
145 -93 225 -150 280 -201 27 -25 57 -50 66 -55 49 -26 146 -157 192 -259 128
-285 59 -571 -204 -855 -47 -51 -208 -182 -293 -240 -162 -110 -458 -257 -693
-344 -228 -85 -621 -200 -635 -186 -4 3 10 47 29 97 36 93 66 216 66 270 0 17
-6 48 -14 68 -8 21 -20 64 -26 95 -21 105 -72 164 -274 320 -38 29 -71 58 -73
64 -6 19 53 73 111 100 51 23 66 26 139 22 45 -3 134 -13 197 -22 158 -24 182
-16 228 74 43 86 52 152 25 188 -16 22 -19 38 -15 85 6 70 -11 94 -72 102 -22
3 -234 12 -471 20 -236 8 -451 18 -477 21 -56 7 -107 -8 -165 -47 -60 -42 -65
-36 -7 9 27 20 60 46 73 57 133 112 180 154 267 240 110 108 207 233 248 317
52 108 69 237 45 338 -37 153 -38 190 -5 212 22 15 108 7 228 -21z m-3034
-265 c32 -29 80 -127 93 -193 20 -98 -7 -226 -76 -363 -39 -78 -141 -235 -210
-324 -132 -171 -299 -298 -413 -313 l-42 -6 21 49 c11 27 36 85 54 129 18 44
81 194 139 333 58 139 106 255 106 257 0 2 11 28 24 57 13 29 50 116 83 193
32 77 71 155 87 173 26 29 34 33 72 29 24 -2 52 -11 62 -21z m4854 -738 c-2
-10 -6 -18 -7 -18 -1 0 -5 8 -7 18 -3 11 0 19 7 19 7 0 10 -8 7 -19z m-1964
-163 c200 -9 372 -20 383 -25 27 -15 23 -43 -19 -140 -54 -123 -41 -120 -320
-86 -242 30 -282 29 -361 -5 -53 -23 -177 -113 -185 -135 -18 -46 -7 -62 97
-145 56 -46 134 -115 173 -154 89 -90 109 -135 102 -237 -6 -89 -42 -173 -148
-339 -191 -302 -272 -339 -825 -384 -800 -64 -1670 -25 -2445 111 -305 53
-751 161 -778 187 -11 12 -6 31 34 127 53 125 82 155 139 146 61 -10 577 -56
775 -68 278 -18 1260 -18 1475 0 267 22 378 43 508 98 132 55 333 190 433 289
86 86 82 126 -34 296 -40 59 -72 114 -72 122 0 20 35 50 254 211 127 94 201
142 225 146 20 4 79 5 131 3 52 -2 259 -10 458 -18z m2005 -260 c-3 -9 -8 -14
-10 -11 -3 3 -2 9 2 15 9 16 15 13 8 -4z m-3103 -10 c-7 -9 -15 -13 -19 -10
-3 3 1 10 9 15 21 14 24 12 10 -5z m-3179 -1160 c81 -25 209 -57 429 -109 432
-100 1031 -172 1643 -197 347 -14 740 -4 1152 32 479 40 657 81 892 204 93 49
103 52 103 31 0 -29 -200 -133 -347 -179 -176 -56 -505 -96 -1013 -122 -879
-46 -1764 31 -2580 224 -272 65 -384 100 -388 124 -5 23 9 22 109 -8z"/>
<path d="M5840 4587 c35 -37 66 -67 68 -67 8 0 -72 85 -103 109 -16 14 -1 -6
35 -42z"/>
<path d="M6690 4560 c23 -27 47 -53 53 -57 7 -4 -10 19 -37 50 -27 31 -51 57
-53 57 -3 0 14 -22 37 -50z"/>
<path d="M5915 4540 c10 -11 20 -20 23 -20 3 0 -3 9 -13 20 -10 11 -20 20 -23
20 -3 0 3 -9 13 -20z"/>
<path d="M5931 4485 c14 -17 41 -51 59 -77 18 -27 35 -48 37 -48 11 0 -78 121
-103 140 -10 8 -7 1 7 -15z"/>
<path d="M5950 4503 c0 -5 10 -18 23 -29 l22 -19 -20 25 c-11 14 -21 27 -22
29 -2 2 -3 0 -3 -6z"/>
<path d="M4789 4488 c-5 -17 -4 -48 3 -48 4 0 7 11 6 25 -2 21 -6 31 -9 23z"/>
<path d="M6805 4413 c35 -55 45 -67 45 -58 0 10 -50 85 -58 85 -2 0 4 -12 13
-27z"/>
<path d="M6040 4330 c6 -11 13 -20 16 -20 2 0 0 9 -6 20 -6 11 -13 20 -16 20
-2 0 0 -9 6 -20z"/>
<path d="M6081 4255 c1 -19 18 -51 18 -35 0 8 -4 22 -9 30 -5 8 -9 11 -9 5z"/>
<path d="M6842 3860 c-11 -27 -19 -50 -16 -50 7 0 45 92 41 97 -2 2 -14 -19
-25 -47z"/>
<path d="M6055 3744 c-9 -15 -12 -23 -6 -20 11 7 35 46 28 46 -3 0 -12 -12
-22 -26z"/>
<path d="M6765 3728 c-16 -25 -21 -37 -11 -29 16 14 51 71 43 71 -3 0 -17 -19
-32 -42z"/>
<path d="M6043 3673 c-9 -16 -22 -34 -27 -42 -8 -11 -8 -13 0 -8 13 7 56 77
49 77 -3 0 -12 -12 -22 -27z"/>
<path d="M6714 3658 c-11 -13 -28 -34 -39 -48 l-20 -25 24 20 c23 20 66 75 58
75 -2 0 -12 -10 -23 -22z"/>
<path d="M5950 3578 c-15 -21 -17 -28 -6 -19 16 13 41 51 33 51 -2 0 -14 -15
-27 -32z"/>
<path d="M5955 3544 c-9 -15 -12 -23 -6 -20 11 7 35 46 28 46 -3 0 -12 -12
-22 -26z"/>
<path d="M6550 3482 c-254 -260 -677 -572 -970 -718 -311 -154 -599 -217
-1199 -259 -227 -17 -337 -33 -226 -34 102 -1 667 53 815 78 144 25 362 87
483 138 304 128 743 437 1075 757 62 60 122 128 110 125 -2 0 -41 -40 -88 -87z"/>
<path d="M6635 3528 l-40 -43 43 40 c23 21 42 40 42 42 0 8 -9 0 -45 -39z"/>
<path d="M5854 3458 c-85 -103 -341 -359 -454 -454 -290 -243 -489 -323 -961
-384 -270 -35 -283 -37 -209 -39 54 -1 250 24 435 55 192 32 428 125 574 227
184 128 500 432 659 635 60 75 26 45 -44 -40z"/>
<path d="M5849 3413 c-13 -16 -12 -17 4 -4 16 13 21 21 13 21 -2 0 -10 -8 -17
-17z"/>
<path d="M5395 2964 c-27 -26 -36 -37 -20 -26 28 19 84 72 74 72 -2 -1 -26
-21 -54 -46z"/>
<path d="M10128 3253 c6 -2 18 -2 25 0 6 3 1 5 -13 5 -14 0 -19 -2 -12 -5z"/>
<path d="M10178 3253 c7 -3 16 -2 19 1 4 3 -2 6 -13 5 -11 0 -14 -3 -6 -6z"/>
<path d="M10252 2890 c0 -14 2 -19 5 -12 2 6 2 18 0 25 -3 6 -5 1 -5 -13z"/>
<path d="M1815 2770 c3 -5 8 -10 11 -10 2 0 4 5 4 10 0 6 -5 10 -11 10 -5 0
-7 -4 -4 -10z"/>
<path d="M9650 1820 c-8 -5 -10 -10 -5 -10 6 0 17 5 25 10 8 5 11 10 5 10 -5
0 -17 -5 -25 -10z"/>
<path d="M5008 1263 c12 -2 32 -2 45 0 12 2 2 4 -23 4 -25 0 -35 -2 -22 -4z"/>
<path d="M7003 1263 c9 -2 23 -2 30 0 6 3 -1 5 -18 5 -16 0 -22 -2 -12 -5z"/>
<path d="M5153 1253 c9 -2 25 -2 35 0 9 3 1 5 -18 5 -19 0 -27 -2 -17 -5z"/>
<path d="M6868 1253 c12 -2 30 -2 40 0 9 3 -1 5 -23 4 -22 0 -30 -2 -17 -4z"/>
<path d="M5248 1243 c7 -3 16 -2 19 1 4 3 -2 6 -13 5 -11 0 -14 -3 -6 -6z"/>
<path d="M6733 1243 c9 -2 23 -2 30 0 6 3 -1 5 -18 5 -16 0 -22 -2 -12 -5z"/>
<path d="M5523 1223 c9 -2 25 -2 35 0 9 3 1 5 -18 5 -19 0 -27 -2 -17 -5z"/>
<path d="M6508 1223 c6 -2 18 -2 25 0 6 3 1 5 -13 5 -14 0 -19 -2 -12 -5z"/>
<path d="M5723 1213 c9 -2 23 -2 30 0 6 3 -1 5 -18 5 -16 0 -22 -2 -12 -5z"/>
<path d="M5923 1213 c76 -2 198 -2 270 0 73 1 11 3 -138 3 -148 0 -208 -2
-132 -3z"/>
<path d="M6388 1213 c7 -3 16 -2 19 1 4 3 -2 6 -13 5 -11 0 -14 -3 -6 -6z"/>
</g>
</svg>
